<?xml version="1.0" standalone="no"?>
<!DOCTYPE svg PUBLIC "-//W3C//DTD SVG 20010904//EN"
 "http://www.w3.org/TR/2001/REC-SVG-20010904/DTD/svg10.dtd">
<svg version="1.0" xmlns="http://www.w3.org/2000/svg"
 width="128.000000pt" height="128.000000pt" viewBox="0 0 128.000000 128.000000"
 preserveAspectRatio="xMidYMid meet">

<g transform="translate(0.000000,128.000000) scale(0.100000,-0.100000)"
fill="#000000" stroke="none">
<path d="M260 1257 c-30 -16 -51 -37 -67 -67 -21 -40 -23 -55 -21 -152 2 -60
7 -109 13 -111 5 -1 11 7 13 18 8 42 36 86 63 100 56 30 59 25 59 -89 l0 -104
-27 -7 c-16 -3 -42 -17 -60 -31 l-32 -24 -3 27 c-2 16 -7 28 -13 28 -6 0 -11
-117 -13 -325 -2 -279 0 -331 14 -367 18 -49 50 -78 105 -95 26 -7 39 -17 39
-29 0 -29 30 -31 62 -4 l31 26 28 -27 c31 -29 59 -27 59 6 0 20 5 20 284 20
245 0 287 2 300 16 14 14 16 73 16 503 0 355 -3 490 -12 499 -8 8 -8 15 0 25
9 10 9 16 0 25 -9 9 -9 15 0 24 18 18 15 103 -4 122 -13 14 -64 16 -403 16
-386 0 -388 0 -431 -23z m58 -84 c-3 -74 -4 -77 -30 -84 -15 -4 -41 -17 -58
-29 l-30 -21 0 56 c0 67 19 109 63 135 54 33 58 29 55 -57z m742 -328 c0 -336
-2 -385 -15 -385 -13 0 -15 49 -15 385 0 336 2 385 15 385 13 0 15 -49 15
-385z m-102 156 c1 -68 -2 -129 -7 -134 -10 -10 -455 -12 -471 -2 -6 4 -10 59
-10 136 l0 129 243 -2 242 -3 3 -124z m-638 -290 l0 -108 -29 -6 c-15 -3 -42
-18 -60 -32 l-31 -27 0 92 c0 104 13 140 63 170 55 34 57 31 57 -89z m0 -240
l0 -98 -29 -6 c-15 -3 -42 -18 -60 -32 l-31 -27 0 82 c0 52 5 91 15 110 18 35
61 70 86 70 17 0 19 -9 19 -99z m740 -56 c0 -16 -6 -25 -15 -25 -9 0 -15 9
-15 25 0 16 6 25 15 25 9 0 15 -9 15 -25z m-50 -100 l0 -25 -325 0 c-210 0
-325 -4 -325 -10 0 -6 115 -10 325 -10 l325 0 0 -25 0 -25 -370 0 c-240 0
-370 -4 -370 -10 0 -5 14 -10 30 -10 l30 0 0 -61 0 -61 -32 6 c-84 17 -125
124 -76 196 41 60 39 60 431 60 l357 0 0 -25z m0 -135 c0 -19 -8 -20 -167 -22
-225 -4 -225 -22 0 -26 l167 -2 0 -25 0 -25 -250 0 -250 0 0 25 c0 23 4 25 46
25 59 0 55 24 -4 28 -39 3 -53 17 -35 35 3 4 116 7 250 7 235 0 243 -1 243
-20z m-526 -6 c3 -9 6 -45 6 -81 l0 -65 -31 26 c-37 31 -41 32 -64 6 -10 -11
-22 -20 -27 -20 -4 0 -8 34 -8 75 l0 75 59 0 c44 0 60 -4 65 -16z"/>
<path d="M540 1070 c-16 -16 -20 -33 -20 -90 0 -70 16 -98 22 -37 3 30 6 32
46 35 42 3 42 3 42 -32 0 -19 5 -38 10 -41 6 -4 10 23 10 74 0 71 -2 82 -22
95 -31 22 -64 20 -88 -4z m78 -22 c7 -7 12 -20 12 -30 0 -15 -8 -18 -45 -18
-46 0 -53 7 -35 41 12 21 50 25 68 7z"/>
<path d="M777 1084 c-13 -14 6 -24 44 -24 21 0 39 -2 39 -5 0 -3 -20 -36 -45
-72 -25 -37 -41 -71 -36 -76 11 -11 121 -4 121 8 0 6 -20 11 -45 13 l-46 3 46
64 c68 96 68 95 -7 95 -36 0 -68 -3 -71 -6z"/>
<path d="M690 990 c0 -5 14 -10 30 -10 17 0 30 5 30 10 0 6 -13 10 -30 10 -16
0 -30 -4 -30 -10z"/>
<path d="M625 140 c3 -5 10 -10 16 -10 5 0 9 5 9 10 0 6 -7 10 -16 10 -8 0
-12 -4 -9 -10z"/>
<path d="M176 891 c-4 -5 -2 -12 3 -15 5 -4 12 -2 15 3 4 5 2 12 -3 15 -5 4
-12 2 -15 -3z"/>
</g>
</svg>
